<mxfile host="app.diagrams.net" modified="2022-07-18T15:20:20.568Z" agent="5.0 (Windows NT 10.0; Win64; x64) AppleWebKit/537.36 (KHTML, like Gecko) Chrome/103.0.0.0 Safari/537.36" etag="ZyCqR-dWmXDskNWiNXSr" version="20.1.1" type="github">
  <diagram id="epgdeJK-ZLmemKuF-B8w" name="Page-1">
    <mxGraphModel dx="1423" dy="752" grid="1" gridSize="10" guides="1" tooltips="1" connect="1" arrows="1" fold="1" page="1" pageScale="1" pageWidth="1169" pageHeight="827" math="0" shadow="0">
      <root>
        <mxCell id="0" />
        <mxCell id="1" parent="0" />
        <mxCell id="Gi6dA0ZQMhNxGPD-tUXo-20" value="" style="rounded=0;whiteSpace=wrap;html=1;fillColor=#B5739D;" parent="1" vertex="1">
          <mxGeometry x="300" y="50" width="160" height="380" as="geometry" />
        </mxCell>
        <mxCell id="Gi6dA0ZQMhNxGPD-tUXo-11" style="edgeStyle=orthogonalEdgeStyle;rounded=0;orthogonalLoop=1;jettySize=auto;html=1;entryX=0;entryY=0.5;entryDx=0;entryDy=0;" parent="1" source="Gi6dA0ZQMhNxGPD-tUXo-1" target="Gi6dA0ZQMhNxGPD-tUXo-10" edge="1">
          <mxGeometry relative="1" as="geometry" />
        </mxCell>
        <mxCell id="gAq7WYcecpii3TtZncFp-2" style="edgeStyle=orthogonalEdgeStyle;rounded=0;orthogonalLoop=1;jettySize=auto;html=1;entryX=0;entryY=0.5;entryDx=0;entryDy=0;exitX=0.5;exitY=0;exitDx=0;exitDy=0;" edge="1" parent="1" source="Gi6dA0ZQMhNxGPD-tUXo-1" target="gAq7WYcecpii3TtZncFp-1">
          <mxGeometry relative="1" as="geometry">
            <Array as="points">
              <mxPoint x="220" y="110" />
            </Array>
          </mxGeometry>
        </mxCell>
        <mxCell id="gAq7WYcecpii3TtZncFp-8" style="edgeStyle=orthogonalEdgeStyle;rounded=0;orthogonalLoop=1;jettySize=auto;html=1;entryX=1;entryY=0.5;entryDx=0;entryDy=0;exitX=0;exitY=0.75;exitDx=0;exitDy=0;" edge="1" parent="1" source="Gi6dA0ZQMhNxGPD-tUXo-1" target="Gi6dA0ZQMhNxGPD-tUXo-3">
          <mxGeometry relative="1" as="geometry" />
        </mxCell>
        <mxCell id="Gi6dA0ZQMhNxGPD-tUXo-1" value="rpi&lt;br&gt;pico&lt;br&gt;" style="whiteSpace=wrap;html=1;aspect=fixed;" parent="1" vertex="1">
          <mxGeometry x="180" y="200" width="80" height="80" as="geometry" />
        </mxCell>
        <mxCell id="gAq7WYcecpii3TtZncFp-7" style="edgeStyle=orthogonalEdgeStyle;rounded=0;orthogonalLoop=1;jettySize=auto;html=1;entryX=0;entryY=0.25;entryDx=0;entryDy=0;" edge="1" parent="1" source="Gi6dA0ZQMhNxGPD-tUXo-2" target="Gi6dA0ZQMhNxGPD-tUXo-1">
          <mxGeometry relative="1" as="geometry" />
        </mxCell>
        <mxCell id="Gi6dA0ZQMhNxGPD-tUXo-2" value="moisture sensors" style="rhombus;whiteSpace=wrap;html=1;" parent="1" vertex="1">
          <mxGeometry x="40" y="200" width="80" height="80" as="geometry" />
        </mxCell>
        <mxCell id="Gi6dA0ZQMhNxGPD-tUXo-3" value="relays" style="rhombus;whiteSpace=wrap;html=1;" parent="1" vertex="1">
          <mxGeometry x="40" y="300" width="80" height="80" as="geometry" />
        </mxCell>
        <mxCell id="Gi6dA0ZQMhNxGPD-tUXo-13" value="" style="edgeStyle=orthogonalEdgeStyle;rounded=0;orthogonalLoop=1;jettySize=auto;html=1;" parent="1" source="Gi6dA0ZQMhNxGPD-tUXo-10" target="Gi6dA0ZQMhNxGPD-tUXo-12" edge="1">
          <mxGeometry relative="1" as="geometry" />
        </mxCell>
        <mxCell id="Gi6dA0ZQMhNxGPD-tUXo-10" value="moisture topic" style="shape=parallelogram;perimeter=parallelogramPerimeter;whiteSpace=wrap;html=1;fixedSize=1;" parent="1" vertex="1">
          <mxGeometry x="320" y="210" width="120" height="60" as="geometry" />
        </mxCell>
        <mxCell id="Gi6dA0ZQMhNxGPD-tUXo-16" style="edgeStyle=orthogonalEdgeStyle;rounded=0;orthogonalLoop=1;jettySize=auto;html=1;entryX=1;entryY=0.5;entryDx=0;entryDy=0;" parent="1" source="Gi6dA0ZQMhNxGPD-tUXo-12" target="Gi6dA0ZQMhNxGPD-tUXo-14" edge="1">
          <mxGeometry relative="1" as="geometry">
            <Array as="points">
              <mxPoint x="580" y="380" />
            </Array>
          </mxGeometry>
        </mxCell>
        <mxCell id="Gi6dA0ZQMhNxGPD-tUXo-12" value="home assistant" style="whiteSpace=wrap;html=1;" parent="1" vertex="1">
          <mxGeometry x="520" y="210" width="120" height="60" as="geometry" />
        </mxCell>
        <mxCell id="Gi6dA0ZQMhNxGPD-tUXo-17" style="edgeStyle=orthogonalEdgeStyle;rounded=0;orthogonalLoop=1;jettySize=auto;html=1;entryX=0.5;entryY=1;entryDx=0;entryDy=0;" parent="1" source="Gi6dA0ZQMhNxGPD-tUXo-14" target="Gi6dA0ZQMhNxGPD-tUXo-1" edge="1">
          <mxGeometry relative="1" as="geometry" />
        </mxCell>
        <mxCell id="Gi6dA0ZQMhNxGPD-tUXo-14" value="relays topic" style="shape=parallelogram;perimeter=parallelogramPerimeter;whiteSpace=wrap;html=1;fixedSize=1;" parent="1" vertex="1">
          <mxGeometry x="320" y="350" width="120" height="60" as="geometry" />
        </mxCell>
        <mxCell id="gAq7WYcecpii3TtZncFp-3" style="edgeStyle=orthogonalEdgeStyle;rounded=0;orthogonalLoop=1;jettySize=auto;html=1;entryX=0.5;entryY=0;entryDx=0;entryDy=0;" edge="1" parent="1" source="gAq7WYcecpii3TtZncFp-1" target="Gi6dA0ZQMhNxGPD-tUXo-12">
          <mxGeometry relative="1" as="geometry" />
        </mxCell>
        <mxCell id="gAq7WYcecpii3TtZncFp-1" value="temperature&amp;nbsp;&lt;br&gt;topic" style="shape=parallelogram;perimeter=parallelogramPerimeter;whiteSpace=wrap;html=1;fixedSize=1;" vertex="1" parent="1">
          <mxGeometry x="320" y="80" width="120" height="60" as="geometry" />
        </mxCell>
        <mxCell id="gAq7WYcecpii3TtZncFp-4" value="mqtt&lt;br&gt;" style="text;html=1;align=center;verticalAlign=middle;resizable=0;points=[];autosize=1;strokeColor=none;fillColor=none;" vertex="1" parent="1">
          <mxGeometry x="355" y="50" width="50" height="30" as="geometry" />
        </mxCell>
        <mxCell id="gAq7WYcecpii3TtZncFp-6" style="edgeStyle=orthogonalEdgeStyle;rounded=0;orthogonalLoop=1;jettySize=auto;html=1;entryX=0;entryY=0.25;entryDx=0;entryDy=0;" edge="1" parent="1" source="gAq7WYcecpii3TtZncFp-5" target="Gi6dA0ZQMhNxGPD-tUXo-1">
          <mxGeometry relative="1" as="geometry" />
        </mxCell>
        <mxCell id="gAq7WYcecpii3TtZncFp-5" value="temperature&lt;br&gt;sensor" style="rhombus;whiteSpace=wrap;html=1;" vertex="1" parent="1">
          <mxGeometry x="40" y="100" width="80" height="80" as="geometry" />
        </mxCell>
        <mxCell id="gAq7WYcecpii3TtZncFp-9" value="relays topic" style="shape=parallelogram;perimeter=parallelogramPerimeter;whiteSpace=wrap;html=1;fixedSize=1;" vertex="1" parent="1">
          <mxGeometry x="30" y="540" width="120" height="60" as="geometry" />
        </mxCell>
        <mxCell id="gAq7WYcecpii3TtZncFp-13" value="on/off" style="text;html=1;align=center;verticalAlign=middle;resizable=0;points=[];autosize=1;strokeColor=default;fillColor=default;" vertex="1" parent="1">
          <mxGeometry x="350" y="555" width="50" height="30" as="geometry" />
        </mxCell>
        <mxCell id="gAq7WYcecpii3TtZncFp-15" value="sensor 1 -&amp;gt; relay 1&lt;br&gt;sensor 2 -&amp;gt; relay 2&lt;br&gt;....&lt;br&gt;sensor n -&amp;gt; relay n" style="text;html=1;align=center;verticalAlign=middle;resizable=0;points=[];autosize=1;strokeColor=default;fillColor=default;" vertex="1" parent="1">
          <mxGeometry x="700" y="415" width="120" height="70" as="geometry" />
        </mxCell>
        <mxCell id="gAq7WYcecpii3TtZncFp-16" value="&lt;span style=&quot;&quot;&gt;relays/relay1&lt;/span&gt;&lt;br style=&quot;&quot;&gt;&lt;span style=&quot;&quot;&gt;...&lt;/span&gt;&lt;br style=&quot;&quot;&gt;&lt;span style=&quot;&quot;&gt;relays/relay n&lt;/span&gt;" style="ellipse;shape=cloud;whiteSpace=wrap;html=1;strokeColor=default;fillColor=default;" vertex="1" parent="1">
          <mxGeometry x="190" y="530" width="120" height="80" as="geometry" />
        </mxCell>
      </root>
    </mxGraphModel>
  </diagram>
</mxfile>
